<svg width="24" height="28" viewBox="0 0 26 30" fill="none" xmlns="http://www.w3.org/2000/svg">
  <path
    d="M21 9.73095V12.714C20.4785 12.6288 19.378 12.5862 18.7143 12.5719V9.85686C18.7143 5.38229 18.1674 2.42829 13 2.42829C7.83259 2.42829 7.28571 5.38229 7.28571 9.85686V12.5719C6.62201 12.5862 5.52148 12.6288 5 12.714V9.73095C5 5.6115 5.82963 0.142578 13 0.142578C20.1704 0.142578 21 5.6115 21 9.73095Z"
    fill="currentColor" />
  <path
    d="M25.5716 18.5239V21.762C25.5716 28.2382 24.3144 29.8573 19.2859 29.8573H6.71443C1.68585 29.8573 0.428711 28.2382 0.428711 21.762V18.5239C0.428711 13.1163 1.30871 11.0925 4.51442 10.5906C5.06757 10.4935 5.69614 10.4449 6.40014 10.4287H19.6001C20.3041 10.4449 20.9327 10.4935 21.4859 10.5906C24.6916 11.0925 25.5716 13.1163 25.5716 18.5239Z"
    fill="currentColor" />
  <path
    d="M13.004 20.1403C12.3279 20.1403 11.7019 19.8714 11.2262 19.4313C11.0008 19.1868 10.8255 18.9179 10.7003 18.6245C10.5751 18.3312 10.5 18.0133 10.5 17.6955C10.5 17.0354 10.7755 16.4242 11.2262 15.9597C12.1526 15.0551 13.8302 15.0551 14.7817 15.9597C15.2325 16.4242 15.5079 17.0354 15.5079 17.6955C15.5079 18.0133 15.4328 18.3312 15.3076 18.6245C15.1824 18.9179 15.0071 19.1868 14.7817 19.4313C14.306 19.8714 13.655 20.1403 13.004 20.1403Z"
    fill="#F7F7FF" />
  <path
    d="M11.7492 23.393L11.743 19.9266C11.742 19.3736 12.19 18.9248 12.743 18.9248H13.2486C13.8003 18.9248 14.2478 19.3717 14.2486 19.9234L14.2535 23.3898C14.2543 23.9426 13.8064 24.3912 13.2535 24.3912H12.7492C12.1976 24.3912 11.7502 23.9446 11.7492 23.393Z"
    fill="#F7F7FF" />
</svg>