<svg width="26" height="26" viewBox="0 0 28 28" fill="none" xmlns="http://www.w3.org/2000/svg">
  <path
    d="M5.64923 16.5376C4.25726 14.7731 3.50015 12.5912 3.5 10.3438V6.65232C3.5 5.53099 4.11758 4.4812 5.16474 4.08016C7.02443 3.36794 9.00372 3 11.0054 3C13.6173 3 16.1911 3.62648 18.5108 4.82687"
    stroke="#D6D1FF" stroke-width="1.5" stroke-linecap="round" stroke-linejoin="round" />
  <path
    d="M15.8368 24.8974C15.2446 25.0313 14.6291 25.0228 14.0407 24.8728C13.4524 24.7228 12.908 24.4354 12.4522 24.0343C10.8686 22.6692 9.69599 20.8905 9.06539 18.8971C8.4348 16.9037 8.3711 14.7742 8.88144 12.7466L9.68194 9.54463C9.94976 8.47332 10.7819 7.61358 11.8752 7.45824C14.0111 7.15476 16.1914 7.26675 18.295 7.79436C20.3989 8.3221 22.3745 9.25271 24.1146 10.5288C25.0045 11.1813 25.3325 12.331 25.064 13.4013L24.2645 16.5882C23.7665 18.6175 22.715 20.4688 21.227 21.9359C19.739 23.4029 17.873 24.4282 15.8368 24.8974Z"
    stroke="#D6D1FF" stroke-width="1.5" stroke-linecap="round" stroke-linejoin="round" />
  <path
    d="M12.1484 13.1701C12.3619 12.9467 12.6325 12.786 12.9308 12.7055C13.2291 12.6249 13.5438 12.6276 13.8407 12.7132C14.1314 12.7816 14.3987 12.9256 14.6157 13.1307C14.8327 13.3358 14.9915 13.5946 15.0761 13.8809"
    stroke="#D6D1FF" stroke-width="1.5" stroke-linecap="round" stroke-linejoin="round" />
  <path
    d="M18.8496 14.8451C19.0563 14.6231 19.3188 14.4606 19.6098 14.3748C19.9007 14.289 20.2094 14.2829 20.5035 14.3573C20.7976 14.4317 21.0663 14.5838 21.2814 14.7976C21.4966 15.0115 21.6503 15.2792 21.7265 15.5728"
    stroke="#D6D1FF" stroke-width="1.5" stroke-linecap="round" stroke-linejoin="round" />
</svg>