<svg width="24" height="23" viewBox="0 0 25 24" fill="none" xmlns="http://www.w3.org/2000/svg">
  <path
    d="M18.6394 21.6198C17.7594 21.8798 16.7194 21.9998 15.4994 21.9998H9.49937C8.27937 21.9998 7.23937 21.8798 6.35938 21.6198C6.57937 19.0198 9.24937 16.9697 12.4994 16.9697C15.7494 16.9697 18.4194 19.0198 18.6394 21.6198Z"
    stroke="#988DFF" stroke-width="1.5" stroke-linecap="round" stroke-linejoin="round" />
  <path
    d="M15.5024 2H9.50244C4.50244 2 2.50244 4 2.50244 9V15C2.50244 18.78 3.64244 20.85 6.36244 21.62C6.58244 19.02 9.25244 16.97 12.5024 16.97C15.7524 16.97 18.4224 19.02 18.6424 21.62C21.3624 20.85 22.5024 18.78 22.5024 15V9C22.5024 4 20.5024 2 15.5024 2ZM12.5024 14.17C10.5224 14.17 8.92244 12.56 8.92244 10.58C8.92244 8.60002 10.5224 7 12.5024 7C14.4824 7 16.0824 8.60002 16.0824 10.58C16.0824 12.56 14.4824 14.17 12.5024 14.17Z"
    stroke="#988DFF" stroke-width="1.5" stroke-linecap="round" stroke-linejoin="round" />
  <path
    d="M16.0809 10.58C16.0809 12.56 14.4809 14.17 12.5009 14.17C10.5209 14.17 8.9209 12.56 8.9209 10.58C8.9209 8.60002 10.5209 7 12.5009 7C14.4809 7 16.0809 8.60002 16.0809 10.58Z"
    stroke="#988DFF" stroke-width="1.5" stroke-linecap="round" stroke-linejoin="round" />
</svg>