<svg width="27" height="26" viewBox="0 0 29 28" fill="none" xmlns="http://www.w3.org/2000/svg">
  <path
    d="M10.3462 13.9999C10.8135 13.9999 11.1923 13.6211 11.1923 13.1538C11.1923 12.6865 10.8135 12.3076 10.3462 12.3076C9.87884 12.3076 9.5 12.6865 9.5 13.1538C9.5 13.6211 9.87884 13.9999 10.3462 13.9999Z"
    fill="#988DFF" stroke="#988DFF" stroke-width="1.5" stroke-linecap="round"
    stroke-linejoin="round" />
  <path
    d="M15.8462 13.9999C16.3135 13.9999 16.6923 13.6211 16.6923 13.1538C16.6923 12.6865 16.3135 12.3076 15.8462 12.3076C15.3788 12.3076 15 12.6865 15 13.1538C15 13.6211 15.3788 13.9999 15.8462 13.9999Z"
    fill="#988DFF" stroke="#988DFF" stroke-width="1.5" stroke-linecap="round"
    stroke-linejoin="round" />
  <path
    d="M21.3462 13.9999C21.8135 13.9999 22.1923 13.6211 22.1923 13.1538C22.1923 12.6865 21.8135 12.3076 21.3462 12.3076C20.8788 12.3076 20.5 12.6865 20.5 13.1538C20.5 13.6211 20.8788 13.9999 21.3462 13.9999Z"
    fill="#988DFF" stroke="#988DFF" stroke-width="1.5" stroke-linecap="round"
    stroke-linejoin="round" />
  <path
    d="M5.75 9C5.75 5.54822 8.54822 2.75 12 2.75H20C23.4518 2.75 26.25 5.54822 26.25 9V16.5C26.25 19.9518 23.4518 22.75 20 22.75H8.21221C7.96736 22.75 7.72522 22.8014 7.50147 22.9008L5.12064 23.959C4.92805 24.0446 4.72246 23.8681 4.77792 23.6647L5.68834 20.3265L4.96476 20.1292L5.68834 20.3265C5.72926 20.1765 5.75 20.0216 5.75 19.8661V9Z"
    stroke="#988DFF" stroke-width="1.5" />
</svg>